<svg xmlns="http://www.w3.org/2000/svg" fill="none" viewBox="0 0 295 130"><g fill-rule="evenodd" stroke="#282828" stroke-linejoin="round" stroke-width=".976" clip-path="url(#a)" clip-rule="evenodd"><path fill="#fff" d="M44.241 114.581v-13.813h55.7v13.813h-55.7ZM1.297 80.158 37.503 58.88 1.297 38.272l7.798-12.645 43.558 26.96v12.588L9.263 92.133 1.296 80.158Z"/><path fill="red" d="M294.015 52.383a94.22 94.22 0 0 1-.815 7.128l-2.987 17.65c-.542 3.077-1.425 6.156-2.647 9.232a27.306 27.306 0 0 1-5.228 8.35c-2.263 2.49-4.978 4.368-8.146 5.634-3.169 1.267-6.337 1.901-9.503 1.901a20.42 20.42 0 0 1-5.431-.747c-1.812-.496-3.35-1.334-4.616-2.512-1.269-1.175-2.309-2.579-3.123-4.208a25.947 25.947 0 0 1-1.901-5.023l-6.517 39.237h-19.008l16.428-99.791h19.144l-1.493 9.096a30.534 30.534 0 0 1 3.733-4.344 20.875 20.875 0 0 1 4.616-3.394 18.594 18.594 0 0 1 5.296-1.902 28.777 28.777 0 0 1 5.498-.543c2.352 0 4.593.408 6.721 1.223 2.125.814 3.89 2.06 5.295 3.734a17.696 17.696 0 0 1 3.19 5.702 29.597 29.597 0 0 1 1.426 6.584c.225 2.264.248 4.595.068 6.992Zm-20.162-4.346c-.589-1.31-1.54-2.329-2.851-3.054a8.723 8.723 0 0 0-4.277-1.087 13.44 13.44 0 0 0-4.005.611 9.235 9.235 0 0 0-3.53 2.038 9.537 9.537 0 0 0-2.376 3.326 20.794 20.794 0 0 0-1.223 3.801l-2.85 17.65a69.857 69.857 0 0 0-.475 3.327 15.774 15.774 0 0 0-.069 3.258c.09 1.042.249 2.083.476 3.123a8.749 8.749 0 0 0 1.153 2.852c.544.86 1.311 1.517 2.309 1.968a7.44 7.44 0 0 0 3.123.679 12.3 12.3 0 0 0 4.548-.882 10.983 10.983 0 0 0 3.937-2.648 12.167 12.167 0 0 0 2.58-4.005 24.276 24.276 0 0 0 1.29-4.413l2.851-17.65a22.64 22.64 0 0 0 .339-4.617c-.046-1.537-.362-2.963-.95-4.276Zm-52.747 37.405v15.75h-47.519v-15.75h16.292l11.269-68.291h-12.219V1.4h33.942l-13.984 84.041h12.219Zm-77.253 15.75 1.493-9.232a20.087 20.087 0 0 1-3.665 4.412 23.844 23.844 0 0 1-4.685 3.327 20.162 20.162 0 0 1-5.295 1.968 25.554 25.554 0 0 1-5.499.611c-2.355 0-4.595-.407-6.72-1.222-2.128-.814-3.893-2.057-5.295-3.733-1.405-1.674-2.468-3.598-3.191-5.77a30.403 30.403 0 0 1-1.425-6.653 39.066 39.066 0 0 1-.069-6.925c.181-2.352.497-4.705.951-7.06l2.852-17.65a46.703 46.703 0 0 1 2.647-9.369 25.865 25.865 0 0 1 5.295-8.28 22.956 22.956 0 0 1 8.146-5.568c3.123-1.266 6.266-1.9 9.436-1.9 1.901 0 3.734.25 5.499.746 1.765.499 3.303 1.337 4.616 2.512a14.041 14.041 0 0 1 3.191 4.21 20.843 20.843 0 0 1 1.765 5.023L160.417 1.4h19.007l-16.428 99.791h-19.143Zm7.535-48.741a15.25 15.25 0 0 0-.475-3.191c-.272-1.04-.679-1.97-1.223-2.783-.542-.815-1.313-1.447-2.307-1.901a7.479 7.479 0 0 0-3.123-.68 12.33 12.33 0 0 0-4.548.883 11.032 11.032 0 0 0-3.937 2.648 12.315 12.315 0 0 0-2.58 3.937 17.091 17.091 0 0 0-1.154 4.481l-2.987 17.65a22.59 22.59 0 0 0-.34 4.616c.045 1.54.361 2.966.951 4.277.587 1.313 1.537 2.331 2.851 3.054 1.311.726 2.736 1.087 4.277 1.087 1.357 0 2.691-.204 4.005-.611a9.263 9.263 0 0 0 3.53-2.036 10.428 10.428 0 0 0 2.444-3.327c.587-1.267.971-2.533 1.153-3.802l2.988-17.65a39.86 39.86 0 0 0 .407-3.326c.089-1.13.112-2.24.068-3.326Z"/></g><defs><clipPath id="a"><path fill="#fff" d="M0 0h295v130H0z"/></clipPath></defs></svg>