<svg xmlns="http://www.w3.org/2000/svg" width="100" height="124" fill="none"><path fill="#3887B2" fill-rule="evenodd" d="m92.485 53.284-3.239-1.135-1.804.356-.202-1.025 1.744-.343 2.615-2.319.23 1.158-1.817 1.528 2.254.675m-3.712-3.28c-.618.121-1.115.038-1.49-.244-.38-.285-.633-.749-.762-1.39-.127-.642-.068-1.165.177-1.57.244-.406.674-.665 1.285-.786l2.943-.58.206 1.029-2.916.575c-.392.075-.659.211-.803.405-.143.192-.181.45-.116.778.065.33.2.558.403.68.205.123.504.144.892.069l2.922-.574.205 1.025-2.946.583Zm-1.624-4.95c-.431.116-.809.061-1.134-.158-.323-.22-.554-.591-.698-1.104a5.766 5.766 0 0 1-.176-1.035l.818-.22.023.084c-.027.311-.014.56.04.756.05.188.118.34.204.449a.56.56 0 0 0 .329.205c.134.03.393-.009.781-.113l2.111-.573-.28-1.029.736-.2.558 2.037-3.313.9Zm-.532-3.322c-.59.208-1.097.203-1.511-.027-.418-.226-.738-.648-.955-1.263-.218-.618-.239-1.144-.053-1.577.181-.437.569-.762 1.156-.966l2.827-1.002.352.993-2.8.99c-.372.13-.62.302-.733.516-.114.211-.114.472-.003.784.112.319.277.524.5.619.218.088.517.069.89-.063l2.808-.991.352.988-2.83.999Zm-2.227-4.716c-.406.182-.784.188-1.14.018-.354-.17-.641-.496-.859-.987a5.223 5.223 0 0 1-.333-.992l.772-.344.036.082c.02.31.072.556.155.741.08.179.17.315.27.41a.567.567 0 0 0 .36.154c.133.009.384-.068.75-.232l2-.888-.433-.971.697-.312.862 1.931-3.137 1.39Zm-3.529-4.21-1.606-2.92 4.205-2.297 1.607 2.918-.699.38-1.105-2.006-.898.491 1.025 1.866-.69.38-1.03-1.865-1.217.664 1.107 2.007-.699.383Zm-.568-8.521-2.735 1.819.287.426c.614.914 1.374 1.065 2.29.456.906-.603 1.055-1.364.444-2.273l-.286-.428Zm-3.942 1.367 3.984-2.654.834 1.24c.375.564.598 1.052.665 1.461.066.41.01.805-.17 1.189-.175.377-.486.718-.93 1.013-.4.264-.823.41-1.267.433a2.049 2.049 0 0 1-1.202-.293c-.357-.224-.715-.6-1.076-1.138l-.838-1.251Zm-1.876-2.042-2.325-2.367 3.425-3.343.734.745-2.856 2.79 1.591 1.623-.57.552Zm-2.946-5.238.725-1.911-1.766 1.044 1.041.867Zm.185 2.475-.853-.71.394-1.028-1.447-1.206-.948.562-.815-.679 4.468-2.504.895.747-1.694 4.818Zm-4.154-3.42-.894-.474-.239-4.098-1.658 3.086-.859-.457 2.26-4.21 1.126.597.204 3.61 1.462-2.722.859.458-2.26 4.21Zm-5.003-7.041a1.082 1.082 0 0 0-1.011.083c-.322.196-.587.55-.796 1.063-.21.514-.266.952-.167 1.314.096.362.319.614.67.754.35.143.687.114 1.008-.082.322-.197.588-.55.794-1.061.208-.51.265-.948.17-1.311a1.064 1.064 0 0 0-.668-.76Zm-1.59 3.916c-.676-.274-1.124-.693-1.347-1.257-.218-.567-.186-1.207.107-1.926.29-.716.712-1.203 1.26-1.459.553-.256 1.167-.249 1.85.027.677.27 1.126.692 1.349 1.257.216.567.181 1.213-.108 1.928-.287.713-.71 1.197-1.258 1.453-.552.259-1.17.253-1.852-.023Zm-2.68-.993L55.55 11.5l.194-.687.754.212.91-3.227-.755-.208.197-.69 2.514.707-.191.687-.755-.21-.908 3.223.75.21-.194.687Zm-3.048-1.212c-.411.164-.739.26-.978.294a3.428 3.428 0 0 1-.69.033c-.731-.036-1.299-.285-1.698-.743-.397-.455-.579-1.073-.537-1.851.042-.764.286-1.358.737-1.783.45-.422 1.037-.615 1.758-.58a3.618 3.618 0 0 1 1.623.489l-.051.976-.11-.005c-.475-.445-.936-.684-1.38-.705-.428-.023-.77.11-1.033.402-.269.288-.41.714-.44 1.268-.031.55.073.98.31 1.293.238.311.565.477.986.5.221.01.438-.016.653-.082.212-.067.477-.224.8-.475l.1.006-.05.963Zm-6.092-1.67-.793-1.883-.56 1.964 1.353-.08Zm1.84 1.673-1.11.065-.423-1.014-1.884.111-.298 1.058-1.062.062 1.52-4.876 1.164-.068 2.094 4.662Zm-5.349.452-.996.171-2.717-3.086.596 3.45-.96.166-.817-4.707 1.256-.216 2.392 2.721-.528-3.042.956-.164.818 4.707ZM33.7 11.21l1.565 2.877.454-.244c.968-.522 1.19-1.266.664-2.228-.518-.957-1.264-1.174-2.234-.65l-.449.245Zm1.001 4.039-2.287-4.198 1.319-.714c.596-.324 1.103-.5 1.52-.526.417-.03.808.063 1.172.274.367.21.675.55.928 1.016.23.422.337.853.318 1.298a2.018 2.018 0 0 1-.405 1.168c-.253.333-.662.653-1.235.963l-1.33.719Zm-2.975-.239-1.652-1.205.534 1.97 1.118-.764Zm2.442.488-.916.624-.888-.647-1.554 1.063.29 1.058-.878.6-1.219-4.962.961-.654 4.204 2.918Zm-9.17 1.943 2.127 2.5.394-.334c.84-.71.904-1.483.194-2.317-.707-.829-1.48-.889-2.32-.18l-.394.331Zm1.813 3.747-3.1-3.643 1.144-.965c.517-.44.978-.714 1.381-.826a1.996 1.996 0 0 1 1.201.032c.403.132.776.402 1.119.806.31.365.504.767.578 1.204.072.439.021.848-.158 1.225-.178.379-.515.777-1.013 1.196l-1.152.971Zm-.613.701-1.638 2.036-.556-.446.488-.613-2.624-2.094-.49.61-.56-.446 1.635-2.033.56.446-.49.605 2.624 2.096.49-.607.561.447Zm-4.637 5.31-.791-.633.066-.083c.3-.066.593-.179.877-.348.28-.17.51-.362.689-.586.185-.229.291-.445.323-.653.028-.205-.032-.369-.178-.484a.493.493 0 0 0-.354-.119c-.122.012-.28.096-.474.247-.135.11-.365.302-.698.567-.331.264-.656.407-.975.43-.32.022-.62-.08-.906-.309-.34-.27-.499-.635-.48-1.093.017-.454.21-.911.578-1.367.37-.463.801-.829 1.297-1.099l.758.603-.066.083a2.379 2.379 0 0 0-1.38.856c-.171.215-.273.419-.305.622-.03.198.024.355.162.466.116.092.24.128.375.107.13-.026.295-.113.494-.268.185-.16.404-.335.645-.522.247-.19.45-.313.614-.371a1.57 1.57 0 0 1 .453-.09c.137 0 .272.024.402.071.131.048.258.123.383.22.363.291.535.675.521 1.147-.018.471-.22.954-.61 1.44a4.564 4.564 0 0 1-1.42 1.165Zm-5.078 1.372 1.309.711.226-.413c.215-.395.292-.693.23-.891-.06-.2-.2-.358-.415-.473-.19-.104-.369-.122-.539-.057-.17.068-.352.283-.55.643l-.261.48Zm5.164-1.036-.62 1.138-2.269.366-.32.588 1.6.861-.502.92-4.213-2.28.876-1.608c.316-.582.65-.945.999-1.091.346-.145.701-.121 1.055.071.558.304.818.806.782 1.51l2.612-.475Zm-2.642 4.63-1.348 3.047-4.388-1.926 1.347-3.048.728.32-.925 2.095.936.41.863-1.945.724.317-.862 1.95 1.274.555.924-2.094.727.318Zm-6.253 1.952 3.927 3.285-.355 1.01-5.123.134.361-1.037 3.727-.044-2.889-2.341.352-1.008Zm2.854 6.352-.862 2.46-.677-.236.26-.736-3.177-1.102-.259.736-.673-.238.86-2.456.676.234-.26.735 3.178 1.105.257-.738.678.236Zm-1.035 3.366-.263.971-3.95 1.168 3.397.904-.252.938-4.63-1.23.327-1.227 3.48-1.024-2.992-.795.25-.939 4.633 1.234Zm-2.976 4.712c.62.12 1.05.381 1.294.785s.304.93.18 1.568c-.123.645-.377 1.108-.755 1.39-.379.286-.874.367-1.488.25l-2.946-.564.196-1.032 2.92.56c.393.073.691.05.897-.078.207-.125.337-.347.4-.675.066-.33.027-.591-.117-.78-.142-.192-.41-.324-.801-.4l-2.926-.558.2-1.03 2.946.564ZM4.999 82.464c.886.132 1.768.262 2.654.395-2.269-7.73-3.805-15.96-3.31-25.585.603-9.543 2.297-18.962 7.392-27.991 5.046-8.997 10.833-15.127 17.087-19.476 6.652-4.458 13.304-6.128 19.957-6.795 8.414.086 15.852 1.916 21.848 6.301 5.708 3.596 10.312 8.733 14.292 14.73 3.549 5.312 6.475 11.298 8.295 18.5C97.196 58.36 95.77 71.36 92.147 83.22c.82-.084 1.643-.163 2.466-.246 3.012-8.462 3.414-18.793 2.627-31.51-1.222-10.082-4.478-20.338-11.746-30.937-4.782-6.203-9.878-11.3-15.523-14.404-8.04-4.528-16.701-6.326-26.12-4.829-7.453 1.272-14.594 4.493-21.354 10.067-4.73 4.57-9.037 9.98-12.733 16.615-4.037 7.597-6.124 15.311-7.227 23.078C1.09 62.843 2.301 73.088 5 82.463Zm75.268-5.583c.349.158.702.313 1.052.473 1.212-4.192 1.852-8.382 2.24-12.574.24-5.604-.125-11.208-1.368-16.812-1.434-7.787-4.53-14.303-8.764-19.951-5.49-7.372-12.237-11.77-20.363-12.9-7.717-.994-14.772 1.381-21.168 7.12-5.206 4.62-9.099 10.311-11.666 17.065-2.578 6.483-3.965 13.563-3.908 21.363a57.65 57.65 0 0 0 2.022 16.327c.36-.202.717-.405 1.078-.607-1.15-5.112-1.89-10.345-1.89-15.786.095-5.42.551-10.878 2.297-16.46 1.585-5.284 3.443-9.309 5.524-12.296 3.012-4.614 6.34-7.968 9.844-10.612 3.662-2.669 7.807-4.67 13.283-5.039 5.896-.333 11.102 1.384 15.843 4.502 4.311 3.375 7.744 6.906 9.912 10.612 2.466 3.82 4.664 8.774 6.471 15.384.965 4.078 1.553 8.092 1.544 12.227.537 5.99-.536 11.977-1.983 17.964Zm-60.934-3.744c-1.335-6.467-.96-11.24-1.05-16.53.489-8.495 2.92-16.373 6.954-23.735 3.507-5.743 8.125-10.227 13.758-13.564 5.84-2.564 11.78-3.29 17.757-1.474 5.828 1.864 10.66 5.352 14.501 10.469 6.044 7.008 8.785 16.27 10.07 25.84.632 7.919.28 15.857-1.657 22.557-.75-.298-1.483-.722-2.23-1.018-.192-1.386.911-1.753 2.653-1.659-1.074-.558-3.223-.808-3.4 1.022.108 3.263.18 6.444.108 9.35-1.071 2.212-2.18 4.422-3.79 6.633-4.538-1.477-9.17-1.48-13.841-.812l.034 10.019c1.494.101 2.989.199 4.483.301-4.64 3.044-9.367 4.2-14.138 4.298-5.87-.115-10.49-1.767-14.074-4.694 1.66-.255 3.322-.22 4.98-.2l.134-10.12c-4.369-.932-9.101-.616-14.137.728a87.64 87.64 0 0 1-3.653-6.746c.066-2.976.248-5.952.316-8.927-.17-2.064-1.562-2.017-3.384-1.423 1.873-.056 2.883.44 2.636 1.748-.773.321-1.545.638-2.317.96-.238-1.008-.478-2.015-.713-3.023Zm-1.696 14.955c1.169-3.904-.553-5.24-3.599-4.957-.809-.956-1.447-1.595-2.258-3.448 3.015-.663 6.935-2.27 10.752-4.09-.143 3.311-.339 6.564-.22 9.747.09.27-4.586 3.15-4.675 2.748ZM5.634 83.487c3.486.924 6.301.202 9.468.519 2.612.646 2.439 2.695-.48 3.622-2.562.678-5.583 1.08-7.583 1.827-1.002-2.358-1.622-4.454-1.405-5.968Zm34.239 6.946c-.042 2.879-.081 5.764-.125 8.646-6.421-.262-12.152 1.156-17.361 3.843-3.37 1.734-6.313 3.006-8.743 3.713-3.587.532-6.343.146-6.665-1.827-.032-2.9-1.12-5.577-2.934-8.102 5.573.317 8.54-.75 10.943-1.644L27.4 90.795c4.223-1.03 8.385-1.209 12.474-.362Zm-23.05-2.377a61.878 61.878 0 0 0-.308 5.91c-3.83 1.563-7.66 2.407-11.492 2.193-2.979-.152-3.423-2.339-.062-4.769 3.85-1.845 7.821-2.894 11.862-3.334Zm-.927 19.797c-1.305 6.501 10.185 3.925 20.858 1.4 6.855-1.616 13.663-1.833 20.422-.363 5.234 1.242 10.341 2.612 15.893 3.533 2.019.461 4.164.686 7.217-.73 1.628-.862 2.57-2.102 2.507-3.898.758.706 1.065 1.723-.244 3.838-2.202 2.401-4.181 4.989-3.545 9.745-3.627.473-7.399.657-11.681-.18-2.502-.431-4.756-.88-6.79-1.438-3.694-.812-7.246-1.6-10.94-1.792-5.725-.102-11.453 1.4-17.18 2.742-6.49 1.212-10.405.993-13.694.428.48-4.133-.051-5.794-.611-7.375-.477-.8-1.037-1.414-1.599-1.833-1.097-1.432-1.729-2.823-.613-4.077Zm11.199 2.865c-1.122.181-2.243.366-3.363.547-2.162-1.787-4.092-3.572-5.503-5.361l2.14-1.033c2.131 2.162 4.403 4.056 6.726 5.847ZM22.2 103.92c2.119 2.29 4.625 4.465 7.399 6.379-.549.104-1.1.133-1.652.238-2.56-1.745-4.926-3.735-6.829-5.946.326-.226.757-.449 1.082-.671Zm7.462-2.951c2.62 2.564 6.45 4.858 11.494 6.884-.733.164-1.467.328-2.203.487-4.516-1.984-7.885-4.299-10.514-6.822.405-.183.813-.364 1.223-.549Zm-9.847-13.218c-.405.14-.814.284-1.22.428.732 1.357 1.464 2.718 2.201 4.079.447-.123.895-.245 1.344-.366-.846-1.31-1.603-2.707-2.325-4.141Zm3.057-2.194c.757 1.706 1.738 3.412 2.877 5.117l-1.162.428a75.456 75.456 0 0 1-2.69-4.631l.975-.914Zm10.046 15.026c.54-.139 1.079-.279 1.616-.42 7.884 6.359 20.437 7.474 30.075.539l1.797.179c-9.967 7.596-22.915 8.235-33.488-.298Zm36.563.692c-2.62 2.561-6.453 4.859-11.495 6.884.733.161 1.468.324 2.204.488 4.514-1.988 7.88-4.303 10.514-6.825-.409-.181-.815-.366-1.224-.547Zm2.183 10.256c1.12.185 2.114.303 3.235.484 2.163-1.785 5.051-3.826 6.465-5.615-.712-.345-1.578-.718-2.29-1.063-2.132 2.163-5.09 4.611-7.41 6.194Zm5.588-7.199c-2.118 2.292-5.257 4.677-8.03 6.59.551.102 1.162.39 1.715.494 2.557-1.744 5.555-4.234 7.457-6.445-.326-.222-.814-.415-1.142-.639Zm2.522-16.085c.409.141.815.284 1.223.424-.733 1.36-1.47 2.721-2.2 4.083l-1.346-.365c.844-1.308 1.605-2.707 2.323-4.142Zm-3.059-2.194c-.754 1.706-1.735 3.411-2.87 5.117l1.162.428a78.262 78.262 0 0 0 2.689-4.632c-.328-.304-.653-.608-.98-.913ZM59.72 90.927l.124 8.648c6.421-.262 12.152 1.157 17.364 3.839 3.367 1.738 6.313 3.01 8.743 3.717 3.585.532 6.34.147 6.665-1.826.029-2.901 1.117-5.578 2.934-8.103-5.577.318-8.54-.749-10.947-1.646-4.135-1.42-8.272-2.84-12.41-4.264-4.223-1.032-8.383-1.212-12.473-.365Zm23.052-2.377c.2 1.97.29 3.94.304 5.91 3.833 1.565 7.664 2.408 11.496 2.192 2.979-.148 3.42-2.336.06-4.77-3.85-1.841-7.822-2.893-11.86-3.332Zm11.189-4.57c-3.486.924-6.301.208-9.468.52-2.612.648-2.44 2.697.477 3.624 2.565.682 5.586 1.08 7.582 1.827 1.002-2.358 1.626-4.453 1.409-5.972Zm-12.176 4.498c-.766-4.133.945-5.185 3.779-4.838.808-.956 1.615-2.448 2.423-4.302-3.643-.267-7.186-1.383-10.65-3.087.217 3.18.318 6.36 0 9.538-.09.27 4.359 3.09 4.448 2.69Zm.119 18.87-4.81 4.478c1.533.116 5.347-1.726 4.81-4.478Zm-.002-.76c-2.017 1.898-4.031 3.8-6.048 5.699 1.472-.027 2.974-.155 4.765-1.454 1.695-1.304 2.29-2.706 1.283-4.245Zm-64.528-.44 5.38 5.117c-1.551.098-3.693.33-5.637-.85-1.126-.897-1.154-2.844.257-4.267ZM2.262 76.4c.039.434.176.823.215 1.26-.79.93-1.435 1.929-1.074 3.37.096.887 1.24 1.257 2.862 1.387C3.19 79.062 2.5 75.693 1.932 72.21c-.57-3.54-.696-7.08-.615-10.618-.113-6.41.439-12.877 2.034-19.286 1.222-4.143 2.705-8.222 4.574-12.206 2.21-4.656 5.242-9.217 8.832-13.715 3.584-4.228 7.66-7.788 12.327-10.539 4.711-2.678 9.98-4.77 16.188-5.55 4.285-.508 8.567-.39 12.85.593 5.175 1.291 9.927 3.192 14.16 5.83a46.86 46.86 0 0 1 10.1 8.795c2.43 2.888 4.723 6.111 6.882 9.671 2.347 4.08 4.561 8.822 6.485 15.02 1.214 4.231 2.061 8.581 2.463 13.079.32 4.876.361 9.752 0 14.624-.203 5.39-1.306 10.242-2.862 14.824 1.2.032 2.487 0 2.943-1.587.002-1.414-.469-2.237-1.152-2.852.025-.488.051-.977.078-1.465 2.636 1.545 3.155 5.304 1.035 7.292l-2.785 7.172c3.367 2.615 3.749 4.756 1.154 6.42-1.816 2.086-2.64 4.458-3.1 6.936.088 1.432-.37 2.614-2.031 3.25-2.726.862-5.387.214-8.034-.752 1.45 2.128.254 4.514-2.15 7.016-1.595 2.13-1.989 4.795-1.709 7.766-8.928 1.751-13.793-.208-19.211-1.664-6.581 1.988-13.792 2.133-21.875-.276-6.415 1.602-12.748 3.42-20.405 1.586.387-3.111.698-6.204-1.474-8.839-2.313-1.827-2.37-3.862-.342-6.064-4.444 1.684-8.657 1.542-10-.633-.308-3.476-1.361-6.616-3.738-9.158-2.334-2.132-1.148-4.445 1.554-5.983-.93-2.484-1.858-4.969-2.785-7.453-2.38-1.966-1.23-5.852.939-7.044Z" clip-rule="evenodd"/><path fill="#3887B2" fill-rule="evenodd" d="M17.311 106.879c1.426 1.396 2.855 2.787 4.28 3.996-1.446.181-2.893.196-4.34-1.132-.685-1.001-.664-1.954.06-2.864ZM79.337 76.123c.176-.614.35-1.233.522-1.853-1.184-.015-2.042.268-2.185 1.206.557.217 1.109.434 1.663.647Z" clip-rule="evenodd"/><path fill="#3887B2" d="m38.24 96.553-.968.036-.134-3.6-.876 2.424-.65.024-1.056-2.345.134 3.592-.912.033-.191-5.123 1.103-.04 1.235 2.682 1.028-2.766 1.1-.042m-6.396 3.857-1.121-1.851-.108 2.16 1.23-.31ZM33.7 96.74l-1.01.255-.597-.997-1.712.428-.057 1.16-.966.24.39-5.383 1.056-.261L33.7 96.74Zm-4.407 1.094-.908.339-1.275-3.37-.06 2.579-.608.228-1.75-1.889 1.273 3.363-.853.318-1.816-4.795 1.032-.387 2.027 2.151.093-2.948 1.029-.385 1.816 4.796Zm-4.703 1.817-.885.399-1.494-3.28.113 2.576-.597.27-1.866-1.77 1.49 3.27-.828.375-2.13-4.668 1.003-.452 2.165 2.015-.103-2.948 1.006-.454 2.126 4.667Zm-6.348.779-1.39-1.661.224 2.151 1.166-.49Zm2.242 1.129-.957.401-.746-.89-1.628.679.122 1.157-.915.385-.438-5.378 1.005-.422 3.557 4.068Zm-4.363 1.839-2.973.918-1.523-4.895.939-.289 1.27 4.083 2.037-.627.25.81Zm-4.326-3.122-2.143.276.145 1.129 1.941-.249.11.841-1.938.245.293 2.275-.973.124-.655-5.087 3.113-.398.107.844ZM91.388 105.29c-.425.147-.752.231-.99.254a3.2 3.2 0 0 1-.687-.005c-.725-.086-1.268-.383-1.628-.898-.357-.51-.492-1.185-.393-2.014.095-.815.384-1.435.862-1.861.476-.427 1.072-.597 1.788-.513.551.066 1.077.27 1.569.617l-.122 1.044-.111-.012c-.439-.508-.876-.787-1.315-.84-.42-.049-.772.074-1.055.368-.284.294-.46.737-.528 1.328-.068.588 0 1.054.212 1.401.212.349.524.548.94.598.217.024.434.009.649-.05.218-.056.492-.207.829-.458l.098.012m-6.182-4.937c-.335-.168-.677-.156-1.022.038-.344.192-.647.556-.91 1.087-.264.532-.366.99-.309 1.375.056.39.253.667.59.833.336.167.677.151 1.02-.042.347-.192.65-.552.912-1.08.262-.533.367-.991.31-1.38-.054-.39-.25-.665-.59-.831Zm-2.015 4.058c-.647-.322-1.05-.785-1.21-1.391-.162-.609-.057-1.283.31-2.026.369-.746.846-1.24 1.424-1.483.58-.246 1.196-.208 1.85.113.65.322 1.055.784 1.216 1.397.158.606.054 1.286-.313 2.029-.366.737-.84 1.23-1.42 1.474-.584.246-1.2.208-1.857-.113Zm-1.756-1.031-.922-.484 1.09-2.062-1.77-.928-1.091 2.062-.921-.484 2.394-4.531.922.482-.91 1.726 1.769.926.911-1.723.922.485-2.394 4.531Zm-4.891-2.553-.942-.41 1.443-3.3-1.899 1.783-.635-.277.015-2.588-1.44 3.289-.887-.383 2.056-4.697 1.07.466.012 2.974 2.192-2.02 1.07.465-2.055 4.698ZM70.913 95.6l-.14-2.168-1.163 1.838 1.303.33Zm1.2 2.27-1.07-.27-.073-1.165-1.813-.46-.623.99-1.023-.26 3.009-4.522 1.118.282.474 5.406Zm-2.193-5.912-2.38 4.884-1.057-.119-1.205-5.294 1.088.125.823 3.86 1.676-3.575 1.055.119Zm-4.109.317-1.559.066.176 4.269-1.04.042-.177-4.27-1.563.062-.035-.846 4.165-.17.033.847ZM74.56 119.658l-3.43-.398.595-5.09 3.43.395-.1.845-2.358-.274-.125 1.091 2.19.252-.098.844-2.19-.256-.17 1.474 2.355.273m-7.007-4.647-.734 3.437.522.114c1.112.235 1.79-.22 2.036-1.373.245-1.141-.19-1.83-1.302-2.064l-.522-.114Zm-1.966 4.002 1.073-5.012 1.515.321c.687.145 1.202.348 1.548.612.344.264.588.609.728 1.031.14.426.151.915.032 1.474-.107.502-.32.93-.634 1.28a2.133 2.133 0 0 1-1.11.677c-.426.102-.966.081-1.622-.059l-1.53-.324Zm-1.309-.338-1.013-.256-1.232-4.186-.924 3.646-.975-.247 1.255-4.971 1.278.321 1.08 3.687.815-3.212.972.247-1.256 4.971Zm-4.866-1.224-3.366-.758 1.13-5.001 3.366.755-.185.83-2.317-.521-.24 1.07 2.152.484-.189.826-2.152-.484-.326 1.449 2.315.518-.188.832Zm-3.858-1.218c-.439.139-.785.217-1.035.23a3.43 3.43 0 0 1-.713-.017c-.752-.1-1.312-.413-1.683-.936-.365-.523-.494-1.197-.383-2.025.113-.815.42-1.427.924-1.846.498-.414 1.12-.573 1.863-.473.576.078 1.12.298 1.629.658l-.144 1.042-.113-.018c-.45-.517-.903-.807-1.357-.871-.437-.059-.804.057-1.103.345-.298.288-.486.728-.567 1.319-.083.586-.015 1.056.2 1.409.218.354.54.558.973.618.225.03.45.017.679-.034.223-.053.513-.2.866-.441l.104.011-.14 1.029Zm-4.298-.556c-.417.196-.75.315-.996.366a3.457 3.457 0 0 1-.71.071c-.76-.007-1.353-.241-1.788-.71-.433-.47-.648-1.124-.641-1.961.002-.821.227-1.468.67-1.947.445-.478 1.042-.712 1.792-.71a3.68 3.68 0 0 1 1.698.439l-.006 1.052h-.117c-.51-.453-.999-.686-1.458-.688-.441-.004-.79.16-1.047.484-.259.323-.39.784-.393 1.382-.004.59.125 1.048.384 1.369.26.324.605.484 1.042.487.229 0 .449-.038.666-.122.222-.079.486-.261.804-.547h.106l-.006 1.035Zm-5.612-1.415-.906-1.985-.483 2.128 1.39-.143Zm1.986 1.715-1.141.115-.486-1.066-1.942.2-.256 1.146-1.095.113 1.333-5.292 1.196-.125 2.391 4.909Zm-10.734-2.784c-.382.086-.648.318-.8.686-.154.369-.16.841-.024 1.421.136.576.354.995.654 1.259a1.1 1.1 0 0 0 1.022.256c.379-.09.645-.318.797-.686.151-.369.16-.842.028-1.415-.138-.579-.356-.999-.654-1.259a1.085 1.085 0 0 0-1.023-.262Zm1.034 4.412c-.736.173-1.366.074-1.894-.29-.527-.364-.887-.952-1.076-1.757-.19-.808-.13-1.494.18-2.056.307-.558.832-.924 1.568-1.099.736-.171 1.37-.074 1.897.294.527.365.888.95 1.079 1.761.188.8.128 1.483-.182 2.045-.307.561-.831.929-1.572 1.102Zm-2.15.081c-.364.282-.66.472-.885.573-.23.104-.457.178-.68.228-.739.164-1.374.063-1.902-.299-.525-.364-.88-.954-1.061-1.771-.177-.799-.102-1.483.225-2.044.328-.566.857-.928 1.59-1.091a3.621 3.621 0 0 1 1.753.06l.227 1.024-.113.027c-.6-.332-1.128-.452-1.575-.354-.429.096-.736.334-.915.705-.182.371-.206.85-.078 1.432.129.576.356.994.677 1.254.324.256.7.338 1.128.243.223-.047.428-.136.622-.26.195-.132.415-.366.662-.718l.105-.021.22 1.012Zm-7.135-2.764c-.39.05-.677.256-.862.608-.185.355-.238.824-.155 1.412.08.588.26 1.026.534 1.314.274.288.605.404.992.35.388-.054.674-.255.86-.609.184-.354.24-.822.158-1.408-.083-.586-.26-1.022-.534-1.313a1.09 1.09 0 0 0-.993-.354Zm.617 4.49c-.745.101-1.366-.054-1.855-.467-.494-.41-.795-1.027-.909-1.845-.117-.826.006-1.504.367-2.032.358-.529.916-.844 1.663-.948.753-.104 1.372.05 1.865.464.492.412.795 1.031.909 1.854.11.817-.012 1.488-.37 2.019-.357.533-.915.85-1.67.955Zm-2.79-4.018-2.387.006.004 1.142 2.162-.006v.847l-2.155.002.005 2.29-1.087.004-.011-5.129 3.469-.004v.848Z"/><path fill="#3887B2" fill-rule="evenodd" d="m20.207 75.67 1.858-.714c-.036-.924-1.298-1.42-2.273-1.123" clip-rule="evenodd"/><path fill="#3887B2" d="m52.936 37.454.224.008s-.135-.984-1.915-.873h-.408c-.016.029-.2.564-.2.564l1.208-.091s.834-.08 1.091.392ZM50.988 38.129c.006-.048.278-.307.278-.307s.036.015.06.015c-.024.048-.054.08-.054.12 0 .195.116.36.299.427.047.013.297 0 .297 0a.46.46 0 0 0 .302-.426c0-.04-.049-.073-.049-.115.165.03.358.115.433.291l.382.018s-.217-.933-1.9-.678c0 0-.414.6-.426.642-.006.026.376.026.378.013ZM48.162 37.041l1.25.083s-.141-.506-.141-.535h-.324c-1.897-.11-2.062.844-2.062.844l.224-.018c.245-.475 1.053-.374 1.053-.374ZM51.781 50.087c-.038-.018-.08-.041-.08-.041.042.04.057.062.08.04Z"/><path fill="#3887B2" d="M64.76 66.853c-.475.024-.464.17-.612.25.12-.231.271-.451.459-.606-.206.086-.388.175-.54.356-.089-.106-.274-.106-.438-.59-.233-.643.041-.85.06-1.448.223.577.647 1.148.637 1.507.236-.5 1.119-1.109 1.381-1.001-.4.68-.182 1.15-.948 1.532Zm-.619.701a.837.837 0 0 1 .364-.184c-.118.052-.247.096-.364.184Zm-.175 1.56c-.478.007-.466.146-.61.253.117-.246.267-.473.458-.618-.206.083-.394.178-.549.366-.089-.113-.29-.143-.427-.597-.224-.64.054-.835.087-1.427.223.559.614 1.132.614 1.48.275-.476 1.16-1.043 1.423-.977-.424.665-.203 1.155-.995 1.52Zm-.773 1.587c-.494-.048-.507.078-.67.163a2.01 2.01 0 0 1 .59-.537c-.245.059-.457.14-.638.286-.072-.13-.27-.175-.332-.654-.119-.648.203-.782.332-1.344.14.568.456 1.183.372 1.522.346-.432 1.366-.853 1.604-.72-.537.574-.405 1.05-1.258 1.284Zm-1.108 2.041c-.5-.02-.51.101-.672.191.161-.212.337-.422.572-.54-.235.05-.459.145-.623.275-.083-.127-.28-.13-.376-.594-.136-.639.177-.784.304-1.342.15.558.492 1.14.428 1.482.346-.453 1.356-.92 1.621-.796-.524.579-.384 1.046-1.255 1.324Zm-1.03 1.43c-.503-.087-.54.032-.733.089.212-.176.435-.357.69-.443-.252.02-.478.074-.7.196-.041-.122-.25-.175-.25-.647-.026-.625.322-.72.551-1.236.046.558.293 1.152.159 1.472.42-.385 1.54-.688 1.784-.522-.648.484-.571.942-1.5 1.09Zm-1.094 1.72c-.506-.063-.546.065-.74.122.216-.193.442-.354.698-.47-.256.04-.498.1-.704.244-.053-.128-.259-.176-.259-.629-.044-.6.314-.729.537-1.236.056.54.313 1.116.18 1.44.428-.397 1.583-.769 1.83-.64-.654.524-.591.98-1.542 1.17Zm-1.569 1.272c-.414-.1-.703.156-.912.32.165-.222.352-.484.538-.611a2.213 2.213 0 0 0-.574.267c.021-.205-.011-.44.057-.829.08-.586.458-.651.779-1.144-.045.553.112 1.135-.09 1.423.505-.309 1.73-.522 1.953-.365-.752.41-.766.873-1.75.939Zm1.629-2.485c.14-.058.3-.113.504-.12-.218.085-.42.177-.564.29.02-.059.054-.113.06-.17Zm-10.142 3.38c-5.83-.125-9.289-4.865-10.61-7.174-.208-.266 3.322-1.372 4.11-1.586l.981-.237c.03.424.778.566.733.392.177.098-.06.38.386.701.474.329.76.136.814.047-.281.313.723.843 1.323.472-.084.303.406.392.514.407.208.128.732.235 1.114 0v3.206c.06.595.09.752.37.85 1.294.115 1.023-.309 1.151-.692-.032-1.376-.068-3.379-.068-3.364.902-.104.664-.302 1.004-.407.37.063.576.058.903-.398.469.051.874-.092 1.02-.478.385.14.947-.246 1.27-.959.86.276 3.997 1.94 5.449 2.394-.659 1.08-4.28 6.822-10.465 6.825Zm-8.786-2.215v-.015l.002.015h-.002Zm1.169 1.418c-.178-.142-.367-.327-.753-.232-.978-.095-1.225-.71-1.96-1.12.228-.151 1.42.066 1.913.375-.185-.271-.03-.83-.06-1.374.304.477.675.548.737 1.133.086.472.076.748.175 1.025a2.056 2.056 0 0 0-.521-.354c.188.152.333.33.469.546Zm-4.016-2.843c.261-.132 1.37.255 1.784.648-.128-.318.134-.874.212-1.415.206.52.543.647.498 1.239-.008.446-.209.484-.269.585-.208-.133-.44-.18-.688-.224.26.09.474.28.677.468-.197-.06-.209-.187-.725-.136-.925-.21-.855-.658-1.489-1.165Zm1.438-.111c.01.08.043.17.081.25-.223-.188-.556-.333-.904-.41.329 0 .594.077.823.16Zm-2.49-1.62c.25-.147 1.354.155 1.765.512-.13-.294.102-.886.156-1.439.224.51.554.622.548 1.21-.017.46-.208.515-.265.632-.202-.117-.439-.157-.677-.174.248.083.469.223.66.41-.172-.057-.212-.166-.698-.074-.911-.136-.857-.586-1.489-1.076Zm-.76-1.63c.248-.113 1.258.342 1.595.791-.072-.34.26-.904.414-1.463.115.56.418.695.29 1.32-.083.457-.268.49-.355.594a1.72 1.72 0 0 0-.623-.282c.224.12.41.311.575.523-.166-.075-.184-.209-.67-.158-.861-.285-.695-.74-1.226-1.325Zm-.978-1.962c.244-.124 1.258.304 1.598.724-.086-.337.227-.925.358-1.508.14.56.439.701.325 1.329-.056.467-.253.514-.325.624a1.07 1.07 0 0 0-.62-.253c.23.1.412.31.58.509-.168-.078-.178-.2-.658-.152-.846-.233-.72-.704-1.258-1.273Zm.918-.807c-.023-.35.385-.906.6-1.462.035.582.304.767.083 1.396-.149.46-.328.46-.417.577a1.6 1.6 0 0 0-.543-.358c.193.164.325.375.46.62-.152-.09-.146-.23-.611-.245-.78-.374-.564-.831-.973-1.482.263-.095 1.145.485 1.4.954ZM34.236 65.1c.254-.094 1.125.494 1.363.978-.012-.353.394-.912.632-1.483.01.59.278.797.048 1.406-.152.496-.34.496-.432.615a1.151 1.151 0 0 0-.534-.372c.19.14.325.377.459.61-.151-.086-.146-.233-.605-.238-.755-.413-.545-.853-.93-1.516Zm1-.698c.056-.356.536-.86.85-1.403-.085.593.145.836-.18 1.436-.227.46-.403.448-.5.556-.114-.206-.279-.334-.46-.453.158.191.25.43.33.7-.121-.138-.094-.265-.53-.368-.656-.497-.357-.738-.62-1.47.244-.058.963.515 1.11 1.002Zm.056-.772c-.015.062-.015.122-.027.184-.125-.288-.42-.58-.728-.79.334.19.567.425.755.606Zm-1.455-2.656c.272.017 1.055.71 1.252 1.214.027-.334.498-.713.78-1.146-.029.57.228.852-.072 1.355-.198.386-.392.311-.484.386-.131-.21-.317-.374-.51-.54.176.22.301.486.394.756-.13-.144-.108-.27-.575-.468-1.116-.97.059.324-.785-1.557Zm1.235.565v.08a3.087 3.087 0 0 0-.702-.841c.439.255.59.517.702.76Zm-1.135-2.818c.267.046 1.01.88 1.135 1.412.083-.327.628-.618.99-1.016-.126.532.073.837-.29 1.298-.278.345-.468.252-.575.314a1.895 1.895 0 0 0-.433-.576c.144.226.224.491.275.77-.108-.163-.066-.279-.504-.531-.636-.69-.386-.877-.597-1.67Zm1.97-.275v.276c-.207.13-.43.282-.576.457.104-.286.29-.386.575-.733Zm-.725-.143c-.093-.214-.251-.39-.432-.565.152.222.23.493.28.763-.122-.153-.083-.27-.516-.498-.636-.684-.376-.844-.577-1.614.278.011.994.832 1.135 1.332.083-.313.628-.634 1.014-1.049-.14.549.077.819-.314 1.288-.278.363-.47.285-.59.343Zm-.812-3.815c.288.055.794 1.035.797 1.568.164-.311.772-.533 1.22-.87-.239.507-.093.808-.571 1.214-.34.31-.515.206-.65.239-.05-.202-.177-.405-.32-.592.1.241.133.505.133.767-.077-.16-.006-.262-.42-.544-.505-.734-.117-1.015-.189-1.782Zm.797-.509c-.502-.718-.108-1.008-.167-1.773.292.047.772 1 .797 1.536.142-.303.765-.583 1.22-.933-.252.528-.103.82-.583 1.248-.348.324-.528.237-.653.27-.05-.22-.173-.404-.325-.585.113.237.13.484.13.76-.083-.175-.007-.276-.42-.523Zm.567-3.455c.267.072.579 1.075.497 1.61.209-.27.87-.46 1.381-.74-.334.47-.242.78-.814 1.138-.411.265-.557.15-.698.188-.003-.218-.099-.437-.194-.633.06.25.013.496-.038.767-.034-.164.038-.271-.299-.577-.372-.764.084-.984.165-1.753Zm1.947.285c-.027.075-.051.132-.078.196a3.28 3.28 0 0 0-.63.258c.182-.171.373-.252.708-.454Zm-1.166-.701c-.38-.77.076-1.008.152-1.77.262.08.6 1.042.507 1.577.212-.286.88-.503 1.384-.815-.338.489-.24.815-.803 1.186-.415.285-.56.172-.698.217-.003-.217-.092-.416-.2-.6.051.237.027.502-.02.751-.055-.17.041-.258-.322-.546Zm1.198-3.37c.244.101.388 1.127.185 1.641.248-.256.939-.386 1.523-.63-.431.436-.395.758-1.012 1.06-.48.226-.6.105-.728.12.02-.211-.027-.422-.095-.63.017.24-.064.51-.174.748-.011-.16.099-.238-.199-.588-.227-.79.27-.98.5-1.72Zm.576 1.112c.105-.08.191-.146.271-.181a.905.905 0 0 0-.28.228c.006 0 .006-.032.01-.047Zm.92-3.307c.172.202.197 1.331-.043 1.836.255-.217.864-.137 1.39-.217-.436.351-.487.723-1.048.856-.424.11-.507-.068-.628-.092.066-.238.08-.482.053-.743-.032.26-.152.55-.283.796.018-.204.125-.262-.051-.737-.02-.965.262-.93.61-1.699Zm.664.08c.083-.954.346-.867.763-1.544.167.213.096 1.3-.188 1.767.284-.188.87 0 1.419-.02-.471.288-.549.648-1.135.688-.458.04-.518-.132-.634-.157.09-.243.12-.476.12-.734-.056.27-.188.505-.364.735.048-.197.146-.244.019-.735Zm1.165-.496c-.023.136-.068.252-.104.35-.017.025-.03.025-.03.025a1.38 1.38 0 0 0 .134-.375Zm.376-.758c.092-.921.54-.865 1.001-1.542.156.238-.088 1.35-.425 1.783.298-.161.906.057 1.458.086-.495.229-.585.576-1.186.591-.464.038-.524-.166-.64-.21.102-.212.13-.453.143-.69-.074.253-.229.487-.383.69.032-.173.154-.23.032-.708Zm2.49-.993c-.036.012-.05.012-.072.028.006-.016.006-.016.021-.028h.051Zm-1.15-.107c.23-.852.694-.742 1.233-1.286.144.25-.272 1.269-.671 1.613.314-.077.904.22 1.464.334-.536.15-.665.46-1.294.377-.46-.054-.501-.259-.623-.31.143-.195.206-.408.245-.638-.102.23-.293.413-.492.588.059-.163.199-.175.138-.678Zm2.516-2.522c.542-.252.683-.428.683-.428l-1.754-.451 1.807-.375s-.053-.096-1.11-.418c-.2-.066-.027-.28-.909-.453.322-.068.224.081.817.173.424.01.746.078 1.327-.047 0 0-1.077-.827-1.782-1.197 0 0 1.176.302 2.092.53 0-.1-.736-.656-1.213-1.255-.123-.134-.153-.22-.274-.342.503.198.503.342.775.511.31.112.915.451 1.126.43-.528-.742-1.258-1.806-1.258-1.806l1.844 1.248c-.07-.473-.42-.846-.451-1.023-.23-.784-.152-.713-.319-1.01.489.75.683 1.153 1.443 1.613l-.336-2.29 1.117 2.009c.07-.28-.018-.835-.04-1.037.11-1.034.112-.422-.02-1.198.123.437.123.363.186.883.206.446.357.787.605 1.188l.456-2.12s.358 2.12.301 2.139c.239-.444.204-.69.435-1.032.34-.574.445-1.051.445-1.051-.167.876-.152.59-.227 1.05.022.462-.02 1.083.122 1.165l1.321-1.898-.536 2.23c.152-.05.704-.739 1.184-1.1.137-.146.39-.512.39-.512-.289.396-.39.639-.546.954-.223.528-.164.348-.414 1.087l1.891-1.285-1.288 1.85s.104.044.948-.425c.51-.125.921-.336 1.174-.514-.616.553-.9.514-1.706 1.584l2.118-.446s-1.75 1.06-1.849 1.117c.098.122.841-.094 1.392 0 .475.027.475.042.95-.047-.55.193-.704.089-1.316.327-.253.139-.791.34-.852.46l2.132.392s-2.106.488-2.467.619c-.113 0-.24-.016-.373-.016-.1 0-.184.016-.268.03a.765.765 0 0 0 .102-.46c-.71.18-1.384-.027-1.945.115a.602.602 0 0 0 .025-.41c-.893.402-1.629.214-2.351.797a1.13 1.13 0 0 0-.116-.583c-.751.413-1.428.154-1.95.627.015-.163.015-.296-.03-.392-.805.306-1.428.417-2.019 1a7.233 7.233 0 0 0-.488-.064c-.007-.038-.04-.056-.051-.086-.027.03-.057.048-.08.086-.11-.014-.23 0-.374.018.755-.232 1.179-.288 1.504-.461Zm10.919.506h-.617a1.42 1.42 0 0 1-.221-.215c.34.08.713.17.838.215Zm.474 1.307c-.072.555.1.531.167.761-.066-.024-.107-.042-.146-.042a3.88 3.88 0 0 1-.444-.58c.09.416.092.57.257.767-.063.086-.165.157-.433.172-.746.06-.886-.119-1.17-.277.493-.21.722-.471 1.215-.323 0-.026-.019-.065-.045-.143 0 0 .015.007.026.007l-.026-.007a1.547 1.547 0 0 0-.43-.546c-.227-.387-.372-.835-.307-.98.57.554 1.107.326 1.336 1.19Zm.185-.68c-.018.082-.048.186-.063.297a1.266 1.266 0 0 0-.288-.333c.134.012.247.035.351.035Zm.331.552c.45.674.927.633 1.017 1.58-.125.48-.006.524.039.708-.174-.226-.32-.44-.4-.707.009.247.045.48.15.707-.132.035-.185.232-.66.205-.618 0-.694-.356-1.21-.603.57-.015 1.195-.226 1.496-.07-.352-.45-.598-1.583-.432-1.82Zm2.05 3.375c-.273-.454-.358-1.515-.196-1.728.433.697.699.545.773 1.499-.133.499-.027.565.024.755-.167-.228-.31-.478-.364-.755 0 .268.021.499.114.734-.114.046-.189.232-.624.185-.611-.045-.694-.42-1.178-.69.552 0 1.178-.184 1.45 0Zm1.29-.392c.346.764.614.683.592 1.66-.175.517-.07.56-.044.764a2.296 2.296 0 0 1-.295-.804c-.017.25-.015.51.05.763-.118.03-.203.205-.634.087-.585-.146-.62-.52-1.07-.871.542.088 1.156-.015 1.421.213-.244-.502-.205-1.606-.02-1.812Zm.915 3.387c-.095-.133-.223-.207-.393-.297.113.026.226.107.376.213.005.031.005.052.017.084Zm.558-1.21c.248.76.73.95.513 1.76-.3.342-.194.439-.218.61-.1-.262-.172-.517-.164-.773-.081.207-.122.433-.09.64-.147-.007-.268.133-.743-.114-.631-.319-.607-.643-1.039-1.088.572.253 1.276.365 1.55.624-.19-.533-.051-1.555.191-1.658Zm1.058 1.638c.09.788.549 1.016.16 1.8-.363.295-.27.398-.318.566-.054-.268-.077-.527-.024-.773-.11.184-.203.386-.212.611-.134-.029-.295.07-.71-.225-.563-.365-.468-.678-.813-1.174.515.304 1.196.511 1.417.809-.093-.55.235-1.546.5-1.614Zm.618 3.878c-.102-.547.212-1.545.48-1.65.1.773.551 1.016.188 1.795-.358.324-.269.416-.32.58a1.763 1.763 0 0 1-.02-.782c-.116.202-.2.41-.207.639-.16-.02-.3.098-.723-.188-.577-.353-.478-.685-.826-1.17.526.312 1.2.481 1.428.776Zm1.237.065c-.057.785.346 1.073-.17 1.806-.409.256-.334.384-.427.523 0-.267.018-.523.126-.76-.15.175-.268.365-.33.585-.126-.033-.29.06-.663-.27-.492-.438-.329-.728-.579-1.26.456.362 1.08.63 1.241.94.015-.551.526-1.507.802-1.564Zm-1.485 2.41c.209.169.384.284.515.4a5.01 5.01 0 0 0-.473-.235c-.021-.064-.024-.11-.042-.165Zm-1.256-3.768c.135.095.248.149.352.213-.104-.04-.212-.083-.31-.104-.02-.032-.02-.066-.042-.11ZM57.48 44.37c.072.01.144 0 .209 0-.065.01-.108.045-.161.045-.023 0-.04-.036-.048-.045Zm-9.187-2.652c-.557 0-.802.273-1.332 0-.412-.168-.37-.366-.46-.447.2-.136.354-.348.471-.556-.19.19-.423.345-.685.45.13-.146.262-.122.402-.612.537-.788.927-.556 1.632-.946.017.271-.732 1.15-1.25 1.397.34.015.772.44 1.222.714Zm1.136-1.003c.337.022.737.533 1.193.835-.551-.04-.8.18-1.318-.118-.402-.22-.357-.413-.442-.523.203-.134.35-.297.49-.503a1.73 1.73 0 0 1-.696.37c.135-.134.257-.102.409-.568.564-.725.83-.443 1.557-.776.026.277-.677 1.081-1.193 1.283Zm1.667-.141c.316.1.653.674 1.056 1.066-.534-.163-.818.03-1.298-.386-.348-.292-.298-.479-.348-.612.223-.068.382-.206.552-.389-.221.13-.49.198-.747.234.15-.104.257-.05.48-.49.651-.609.984-.271 1.75-.437-.025.282-.902.918-1.445 1.014Zm.999.126c.3.027.573-.058.841-.187a1.95 1.95 0 0 1-.609.018c.38-.246.654-.555 1.17-.54.715 0 .715.415 1.144.199.045.384-2.012 1.305-2.546.51Zm2.04.812c-.218 0-.43-.068-.645-.16a3.31 3.31 0 0 0 .868-.369c.543.11 1.006.369 1.05.844-.462-.128-.559.164-1.238.288-.632.125-.965-.22-1.523-.35-.168-.125-.236-.253-.227-.348.271.06.56.06.844.009l-.015.083c.29.113.596.078.885.003Zm-9.722.32c.114-.133.257-.133.35-.638.322-1.004.88-.882 1.577-1.352.233.31-.61 1.43-1.155 1.77.34-.052.8.36 1.28.54-.557.079-.787.37-1.347.195-.421-.145-.385-.335-.48-.428.187-.154.316-.374.455-.604a2.2 2.2 0 0 1-.68.518Zm-7.86 18.422h12.682v-4.573c-1.21-.065-2.373-.332-3.112-.814-.847-.549-1.178-1.348-.517-2.409 0-1 .021-1.673.123-2.205-.478.627-.803 1.193-1.02 1.753-.406 1.046-.436 2.116-.353 3.626.645.766.534 1.342.159 1.672a1.235 1.235 0 0 1-.766.283 1.19 1.19 0 0 1-.784-.234c-.406-.326-.535-.946.172-1.864.033-2.416.295-3.902.984-5.227.695-1.333 1.805-2.48 3.534-4.245.015-.013.027-.024.044-.036l.004-.003.011-.008c.471-.301 1.907-1.225 3.287.151a90.014 90.014 0 0 0 .71.882c1.555 1.938 2.185 2.716 2.14 5.61.68.888.51 1.604-.152 2.135-.635.512-1.772.82-3 .919v4.587h12.656c.009.422-.215 3.798-.898 6.088-2.538-.038-4.93-1.434-6.99-1.369-1.255-.235-2.91-1.652-4.77-1.545v-3.174h-1.453v3.723c-.552-.11-1.557-.119-2.421 0-2.332.429-1.553 1.569-9.61 1.685-.726-2.415-.66-5.408-.66-5.408Zm-.13-5.535c-.144.077-.305.148-.456.229.119-.116.274-.2.491-.38a.46.46 0 0 1-.035.15Zm-.144 13.02c-.015-.038-.027-.038-.038-.056-.078-.66.146-.702.435-1.605.038.113.065.226.1.35-.261.408-.565.904-.497 1.31Zm1.572 3.574a1.851 1.851 0 0 0-.61-.389c.222.057.413.142.568.234a.673.673 0 0 0 .042.155Zm.313-1.239c-.06.095-.11.196-.162.295.03-.099.07-.257.102-.41.023.053.042.059.06.115Zm6.954-1.129c-.164.069-.448-.231-.293-.306.095-.178.545-.754.76-.446.093.18-.307.701-.467.752Zm3.736.907s.439-.47.629.18c.071.26-.405.56-.838.68-.239-.12-.757-.099.21-.86Zm-2.636-.173c-.197.05-.343.071-.45-.093-.126-.311.992-1.559 1.285-.873.088.181-.648.952-.835.966Zm2.25-.419c.154.326-.936.942-1.117.999-.191.062-.205.062-.335-.104-.118-.179 1.06-1.694 1.453-.895Zm2.944-1.85c.659.738 1.252.873 1.66 1.761-.136.261-.393.315-.661.173-.987-1.115-1.905-1.273-1.523-1.79-.197-.026-.382.236-.332.42.173.775 1.065 1.088 1.312 1.755-.12.541-1.177.06-1.67-1.31l-.032-.069c-.197.4-.364.544.34 1.38.158.303.26.656-.272.591.098.087-.257-.045-.093 0h.093c-.012-.03-.038-.045-.107-.062.26-1.365-1.008-1.088-.96-1.088.185-.488-.522-.983-1.232-.663.104-.36-.653-.94-1.697-.534-.157-.365-1.08-.742-1.974.365-1.59.143-4.18 1.536-5.736.838-.063.06-.99-2.556-1.026-2.626 1.837-.179 5.967-.455 7.443-1.07 1.148-.752 3.312-1.12 3.813-.846-.032.394-.96 1.143-.48 1.52.805.768 2.105.41 2.985-.1.915.926 2.389 1.047 2.958 2.295l-.176.408c-.304.214-.328.214-.686-.291-.876-1.156-1.703-.907-1.849-1.693-.312.098-.098.448-.098.635Zm9.644 2.38s-2.416.394-5.377-1.561c.23-.29.356-1.084.23-1.557-.075-.371-.075-.05-.18.181-.279.68-.492.756-.798.993-.886-.885-.993-.9-2.124-1.545-.814-.443-.882-.724-1.338-1.005-.772.366-2.01 1.076-2.615.645-.516-.252.587-.543 1.031-1.233.392-.516.848-.675 1.483-.535 1.201.262 1.818.71 3.62 1.472 2.191.16 3.825.825 6.053 1.3.372.114.92.157 1.18.182-.295.889-.573 1.511-1.165 2.663Zm1.827 1.348c-.394.105-.766.297-.997.53.022-.046.028-.067.04-.103.25-.092.435-.4.957-.427Zm-.957.21c-.02-.303-.184-.637-.34-.94.048-.087.096-.206.156-.3.103.662.26.837.184 1.24Zm1.148-4.727c.038-.124.09-.273.12-.418 0 .041.01.06.017.08.302.949.544 1.001.46 1.65-.003.03-.042.053-.042.077.066-.443-.271-.951-.555-1.389Zm1.66-10.521c.007-.545.529-1.545.803-1.598-.06.778.34 1.06-.172 1.81-.415.294-.335.398-.435.561 0-.267.032-.54.138-.775-.163.19-.28.377-.333.612-.14-.056-.3.063-.656-.273-.489-.401-.337-.71-.587-1.225.462.343 1.082.573 1.243.888Zm1.194.188c-.203.8.128 1.12-.516 1.8-.454.226-.4.35-.528.5.053-.274.138-.541.275-.749-.17.155-.334.336-.432.562-.12-.068-.308.002-.597-.354-.388-.484-.176-.766-.325-1.314.385.396.954.726 1.043 1.046.114-.546.8-1.467 1.08-1.49Zm-1.933 2.273c.29.332.475.43.58.716a3.645 3.645 0 0 0-.568-.467c0-.074-.008-.154-.012-.249Zm.853 1.693c.114-.572.8-1.533 1.08-1.574-.212.805.12 1.126-.529 1.847-.449.25-.41.373-.515.548.046-.297.128-.562.275-.81-.182.191-.344.379-.432.602-.12-.053-.308.041-.59-.327-.368-.461-.17-.778-.306-1.307.361.369.928.683 1.017 1.021Zm1.294.646c-.346.783-.086 1.15-.828 1.808-.471.196-.45.313-.587.473.098-.277.223-.54.405-.76-.208.151-.397.329-.537.543-.09-.062-.287-.009-.495-.397-.286-.517-.033-.818-.075-1.382.29.434.763.81.8 1.17.205-.565 1.052-1.447 1.317-1.455Zm-1.518 2.875c.117-.192.3-.386.639-.579-.275.232-.504.511-.611.805 0-.086-.018-.158-.028-.226Zm1.206-.386c-.269.729.017 1.183-.641 1.711-.448.085-.409.22-.537.36.075-.275.163-.535.325-.707-.189.11-.349.253-.457.44-.101-.093-.284-.068-.521-.535-.329-.612-.105-.858-.185-1.477.316.526.81 1.054.873 1.414.161-.54.874-1.274 1.143-1.206ZM45.818 53.78c2.76-.675 5.97-.298 7.926.08.072-.289-.018-.624-.334-1.01a.233.233 0 0 1-.051-.17c-1.947-.613-5.361-.668-7.26-.172v.023a.255.255 0 0 1-.04.134c-.279.429-.342.8-.24 1.115Zm-1.95 1.96c-.093-1.619-.066-2.76.382-3.913.441-1.142 1.285-2.27 2.823-3.862h.004l.005-.01a.245.245 0 0 1 .349-.005.245.245 0 0 1 .012.341h.004c-.618.689-.958 1.106-1.134 1.652-.158.482-.203 1.089-.211 2.08 1.913-.618 5.325-.469 7.257.185-.023-2.398-.632-3.157-2.036-4.897-.2-.25-.42-.523-.677-.853-1.092-1.073-2.26-.336-2.654-.08-1.69 1.723-2.773 2.843-3.43 4.11-.658 1.265-.906 2.706-.932 5.085 0 .064-.021.119-.06.162-.534.664-.513 1.06-.296 1.233a.698.698 0 0 0 .458.127.737.737 0 0 0 .456-.16c.195-.173.21-.517-.257-1.047a.242.242 0 0 1-.063-.147Zm7.6 24.893a5.34 5.34 0 0 0 .708-.155 8.011 8.011 0 0 1-.666-.561c-.792-.736-.39-.514-.84-1.001.483-.136 1.222-.238 1.73-.051.14.05.27.107.393.17a.599.599 0 0 0-.277-.52h-.096c1.66-.416 3.239-1.25 4.67-2.39-.028.022-.03.051-.03.081-.107.547-.15.936-.26 1.307-.414.779-2.141 1.483-3.417 1.932.17.15.304.315.403.475 1.568-.622 3.38-1.521 4.192-2.213 1.488.134 2.058-1.016 3.133-1.581-.055-.083-.165-.13-.297-.187.62-.377.936-.895 1.617-1.417-.112-.104-.308-.153-.526-.16 1.003-.35.316-.753 1.288-1.457a.659.659 0 0 0-.175-.12c.65-.42.605-1.003 1.183-1.628-.122-.1-.33-.15-.572-.15 1.098-.355.995-1.115 1.685-1.825-.045 0-.218-.015-.454-.047.6-.498.424-1.141.898-1.852-.164-.101-.393-.127-.662-.082.984-.434.85-1.344 1.387-2.211-.096-.083-.252-.108-.424-.108.784-.775-.212-.505.4-2.1-.174-.095-.403-.054-.63.048.803-.656.639-1.456 1.085-2.44-.527-.1-1.725.728-2.066 1.4v-.108c.114-.22.262-.498.698-.766 1.19-.865.736-1.634 1.067-2.787-.566-.041-1.607.879-1.848 1.578-.006-.083-.03-.152-.05-.214.17-.277.209-.684.855-1.014 1.026-.567.715-1.577 1.043-2.706-.155-.03-.372.03-.578.143.223-.72-.239-1.239-.152-2.113-.575 0-1.288 1.046-1.347 1.75a.724.724 0 0 0-.183-.274c.09-.276.134-.596.615-.953 1.008-1.173.164-1.839.28-2.98a.541.541 0 0 0-.31.09c-.054-.58-.468-.952-.537-1.689-.587.066-1.111 1.144-1.037 1.85a1.23 1.23 0 0 0-.26-.28c.06-.272.116-.637.525-.993.542-1.133 0-1.685-.09-2.811-.166.008-.346.113-.525.256-.002-.731-.413-1.074-.653-1.896-.36.059-.713.57-.858 1.097 0-.239.045-.505.145-.794.025-1.471-.589-1.6-1.067-2.751-.193.118-.348.472-.454.846-.172-.98-.584-1.233-1.108-2.157-.343.289-.502 1.252-.379 1.932-.083-.227-.146-.491-.044-.913-.132-1.184-.716-1.547-1.277-2.255.277-.023.56-.104.916-.348 0 0-.507.043-.79-.094-.3-.137-.492-.46-.772-.595-.332-.154-.624.045-1.156-.296l2.926-.604c-.032-.015-2.871-.558-2.871-.558s.151-.183.49-.217c.257.026.61-.025.89-.282.128-.163.52-.593 1.328-.515-.669-.389-1-.246-1.596-.04-.397.243-.594.034-1.252.047 0 0 2.4-1.508 2.4-1.54l-2.878.6c.453-.704.901-.365 1.18-1.22.073-.196.404-.562.902-.797-.522-.151-1.082.2-1.672.797-.207.085-.698.296-.982.352-.024-.018 1.622-2.412 1.622-2.412s-1.67 1.174-2.442 1.623l.009-.036c.104-.66.54-.56.64-1.26-.04-.22 0-.842.523-1.355-.654.155-.96.627-1.22 1.355-.125.274-.504.389-.795.725l.568-2.84-1.639 2.408s-.126-.106-.087-.362c.214-.496.22-.727.182-.973-.172-.363-.355-.881 0-1.515-.925.554-.498 1.333-.749 1.907a6.681 6.681 0 0 1-.426.76l-.44-2.835-.574 2.835c-.357-.464-.14-.633-.327-1.09-.263-.535-.728-.433-.747-1.605-.19.428-.416.683.09 1.854.078.128-.071.641-.02 1.024l-1.608-2.409.581 2.84c-.363-.023-.453-.638-.745-.894-.402-.308-.99-.22-1.292-1.185-.13.645.1 1.028.705 1.578.235.282.358.775.445 1.073l-2.437-1.623s1.643 2.413 1.652 2.413c-.562.073-.573-.663-1.631-.618-.698 0-1.083-.621-1.035-.514.337 1.244 1.219.879 1.548 1.38.092.096.452.483.528.607l-2.836-.606 2.444 1.55c-.426.236-.96-.328-1.47-.04-.93.46-1.386.018-1.46.018.567.728.936.558 1.509.594.42-.018.727.201 1.222.433l-2.883.574 2.85.535c-.337.32-.892.084-1.285.427-.846.97-1.712.447-1.413.604.736.505 1.13.365 1.562.213-.272.235-.522.425-.73.705-.043-.22-.116-.413-.242-.509-.524.795-1.228.877-1.449 1.902-.05-.273-.152-.504-.295-.636-.484.874-1.018 1.01-1.214 1.965-.072-.25-.179-.443-.313-.532-.471 1.114-1.25 1.346-1.017 2.822.12.365.12.618.089.829-.067-.577-.35-1.17-.754-1.239-.355.616-.718 1.133-.794 1.808-.14-.124-.273-.19-.42-.196-.083 1.1-.957 1.478-.13 2.788.444.41.381.746.429 1.04a.742.742 0 0 0-.146.17c.06-.68-.543-1.729-1.11-1.786-.08.815-.474 1.188-.416 1.863-.144-.077-.263-.122-.392-.122.12 1.12-.706 1.587.334 2.728.498.339.525.666.615.928-.09.104-.14.16-.173.268-.069-.691-.776-1.668-1.34-1.668.116 1.242-.503 1.195-.13 2.047a1.1 1.1 0 0 0-.585-.17c.316 1.112-.045 2.032 1.04 2.666.63.323.671.728.847.98-.038.075-.05.137-.065.213-.227-.685-1.261-1.588-1.82-1.544.3.962.114 1.878.684 2.446-.322-.185-.677-.286-.973-.227.514 1.106.23 1.707 1.26 2.638-.326-.171-.662-.216-.884-.12.288.763.203 1.334.472 1.88-.165 0-.314.044-.43.095.564.903.376 1.613 1.268 2.164-.215-.006-.411.005-.534.1.414.642.439 1.21.764 1.726-.138.019-.257.051-.35.145.695.658.704 1.37 1.489 1.78-.218 0-.395.054-.507.137.539.562.742 1.097 1.249 1.512-.233.022-.423.09-.534.215.802.57.861 1.203 1.727 1.51a.94.94 0 0 0-.55.156c1.02.805.355 1.091 1.304 1.456-.08.048-.14.08-.176.14 1.07.583 1.184 1.886 3.521 1.872h.006c.77.83 2.44 1.767 4.136 2.366.128-.164.275-.332.432-.492-1.827-.635-3.344-1.502-3.774-2.154-.166-.385-.224-.849-.329-1.452 0-.03-.017-.03-.017-.047 1.503 1.27 3.155 2.185 4.923 2.623h-.148c-.254.303-.344.546-.344.733.563-.496 1.518-1.105 2.052-.617.318.288.089.624-.23.906-.326.287-.805.607-1.285.876.327.08.647.14.953.182l2.974.038Z"/><path fill="#3887B2" d="m52.936 37.454.224.008s-.135-.984-1.915-.873h-.408c-.004.029-.2.564-.2.564l1.208-.091s.834-.08 1.091.392ZM50.989 38.129c.005-.048.277-.307.277-.307s.036.015.06.015c-.022.048-.042.08-.042.12 0 .195.104.36.287.427.047.013.306 0 .306 0a.464.464 0 0 0 .293-.426c0-.04-.033-.073-.049-.115.165.03.362.115.443.291l.372.018s-.212-.933-1.9-.678c0 0-.414.6-.414.642-.018.026.367.026.367.013ZM49.178 38.129c-.005-.048-.276-.307-.276-.307s-.036.015-.06.015c.02.048.041.08.041.12 0 .195-.104.36-.286.427-.047.013-.308 0-.308 0a.464.464 0 0 1-.291-.426c0-.04.033-.073.045-.115-.162.03-.358.115-.439.291l-.373.018s.212-.933 1.9-.678c0 0 .414.6.414.642.015.026-.367.026-.367.013ZM48.162 37.041l1.25.083s-.141-.506-.141-.535h-.324c-1.897-.11-2.062.838-2.062.838l.233-.012c.253-.482 1.044-.374 1.044-.374Z"/><path fill="#3887B2" fill-rule="evenodd" d="M49.999 79.457c.278 1.212-1.002 3.088 2.257 5.203.215-.198.949-.458 1.163-.654-3.874-2.091-2.728-2.988-2.746-4.931-.227.127-.45.258-.674.382ZM48.826 79.538c-.88.779-2.868 1.759-3.017 1.538-.08-.124.003-.37.187-.665.21-.339.547-.733.91-1.073.546-.507 1.581-1.223 2.15-.706.32.288.09.623-.23.906Zm1.37-1.263c-.108.125.175.118.107.234-.247.42-.976 1.385-1.121 1.512-.672.586-1.228 1.025-2.15 1.483-2.04 1.022-3.451.532-2.333-.874 1.206-1.514 1.984-3.686 5.497-2.355Z" clip-rule="evenodd"/><path fill="#3887B2" fill-rule="evenodd" d="M50.67 78.917c.45.487.048.265.84 1 2.97 2.765 3.296-.18.89-1.051-.508-.187-1.247-.085-1.73.05Zm-.716-.524c.077.126.083.399.126.515.065.205.026.612.116.856.041.121-.132.138.075.228.333.142-.427-.603.348.246 1.597 1.762 3.545 2.167 4.544 1.784 1.402-.535.125-2.131-.256-2.644-.775-1.05-1.974-1.786-4.953-.985Z" clip-rule="evenodd"/><path fill="#3887B2" fill-rule="evenodd" d="M50.604 79.412c-1.435.948-.721 2.545-2.627 5.04-.235-.2-1.014-.19-1.25-.386 2.428-2.451 1.715-3.376 3.14-5.037.245.129.49.257.737.383Z" clip-rule="evenodd"/><path fill="#3887B2" fill-rule="evenodd" d="M50.1 77.9c.684 0 1.237.481 1.237 1.076 0 .594-.553 1.078-1.237 1.078-.682 0-1.238-.484-1.238-1.078 0-.595.556-1.076 1.238-1.076Z" clip-rule="evenodd"/></svg>