<?xml version="1.0" encoding="utf-8"?>
<!-- Generator: Adobe Illustrator 27.6.1, SVG Export Plug-In . SVG Version: 6.00 Build 0)  -->
<svg version="1.1" id="Capa_1" xmlns="http://www.w3.org/2000/svg" xmlns:xlink="http://www.w3.org/1999/xlink" x="0px"
	y="0px" viewBox="0 0 16 16" style="enable-background:new 0 0 16 16;" xml:space="preserve">
	<style type="text/css">
		.st0 {
			fill: black;
		}

		@media (prefers-color-scheme: dark) {
			.st0 {
				fill: white;
			}
		}
	</style>
	<g>
		<path class="st0" d="M11.2,5.2C11,4.7,10.6,4.3,10,4S8.9,3.6,8.2,3.6C7,3.6,6,4,5.3,4.8C4.5,5.6,4.2,6.7,4.2,8
		c0,1.4,0.4,2.5,1.2,3.3c0.8,0.8,1.8,1.2,3.2,1.2c0.9,0,1.7-0.2,2.3-0.7c0.6-0.5,1.1-1.1,1.4-2H7.5V7h8.2v3.5
		c-0.3,0.9-0.8,1.8-1.4,2.6s-1.5,1.5-2.5,2c-1,0.5-2.2,0.7-3.5,0.7c-1.5,0-2.9-0.3-4.1-1c-1.2-0.7-2.1-1.6-2.8-2.8
		c-0.7-1.2-1-2.5-1-4.1c0-1.5,0.3-2.9,1-4.1C2,2.7,2.9,1.8,4.1,1.1c1.2-0.7,2.5-1,4.1-1c1.8,0,3.4,0.4,4.7,1.3s2.1,2.1,2.5,3.7H11.2
		z" />
	</g>
</svg>